
<svg xmlns="http://www.w3.org/2000/svg" viewBox="0 0 640 512">
  <path fill="#FF9900" d="M180.41 203.01c-.72 22.65 10.6 32.68 10.88 39.05a8.164 8.164 0 0 1-4.1 6.27l-12.8 8.96c-10.88 7.62-22.08 11.77-33.28 11.77-15.57 0-30.97-8.61-44.33-24.76-6.35-7.61-15.57-20.48-18.38-20.48-5.06 0-13.3 14.78-24.42 22c-17.79 11.8-33.54 17-56.17 17-31.15 0-57.24-25.3-57.24-63.24 0-45.1 33.3-72.46 69.13-72.46 11.5 0 29.06 4.8 37.67 10.69 3.5 2.4 4.34 2.58 6.29 1.38 1.2-.72 1.3-1.25 3.98-14.59l2.63-12.83c1.2-6.17 2.98-7.01 7.37-7.01 7.84 0 27.18 3.18 32.85 5.05 13.3 4.48 19.59 9.25 19.59 14.66-.24 4.1-2.83 10.45-3.77 12.2-2.36 4.31-2.64 4.07-12.33-1.33-3.55-1.87-23.63-11.31-32.53-11.31-10.7 0-15.68 3.4-15.68 9.4 0 5.05 3.03 8.6 14.28 15.54 24.75 15.14 53.4 26.5 53.4 61.22 0 23.14-8.63 40.04-26.28 51.8-20.39 13.9-50.13 16.87-66.52 16.87m207.86-200.18l-8.8 34.44c-13.3-4.45-26.92-6.92-40.62-6.92-22.08 0-39.14 2.87-50.67 9.17-11.26 6.14-34.07 24.1-34.07 63.24 0 31.63 19.8 43.8 37.92 43.8 10.2 0 20.41-3.22 30.2-9.36 5.3-3.5 9.8-6.66 13-9.8-2.86 7.05-3.8 14.1-3.8 22.82 0 33.86 21.93 48.2 47.31 48.2 19.8 0 35.94-6.4 49.24-15.82 24.81-17.8 37.74-47.4 37.74-87.2 0-60.8-35.06-93.4-77.45-93.4m-2.46 140.9c-9.17 0-18.37-7.1-18.37-25.77 0-28.86 16.8-46.05 45.83-46.05 5.72 0 11.4.71 17.66 2.38-4.23 37.5-19.59 69.4-45.12 69.4m163.47 91.13h-37.1c-3.25-21.24-3.56-76.5-3.56-98.35l.12-220.68c17.27 2.4 35.5 3.6 53.82 3.6V344.45c26.38 0 34.82-.24 42.9-.24l5.28.12c0 13.32-2.76 23.25-2.76 37.18 0 9.8 1.8 18.88 1.8 29.93-18.84-2.88-42.37-3.8-60.5-3.8m159.32-59.06c-8.02-3.86-12.04-7.72-12.04-16.2 0-10.3 8.16-19.94 18.37-22.7 20.17 5.05 27.06 12.04 42.43 12.04 18.97 0 27.84-6.17 27.84-22.48 0-49.01-67.81-8.9-67.81-73.37 0-31.79 21.13-54.9 62.15-54.9 17.5 0 39.4 3.1 47.12 4.9 3.86 28.8-1.37 42.97-1.37 35.7 0-8.4-7.96-16.9-14.46-19.48-17.35-4.5-22.7-9.32-38.85-9.32-23.5 0-27.34 10.7-27.34 17.18 0 44.55 69.54 8.72 69.54 74.77 0 41.15-30.32 57.96-65.25 57.96-21.37 0-33.87-4.3-40.33-7.1"/>
</svg>
