
<svg xmlns="http://www.w3.org/2000/svg" viewBox="0 0 32 32">
  <path d="M15.63 31.388l-7.135-2.56V18.373l7.135 2.43zm1.3 0l7.135-2.56V18.373l-7.135 2.432zm-7.7-13.8l7.2-2.033 6.696 2.16-6.696 2.273zm-2.092-.8L0 13.425V1.388l7.135 2.56zm1.307 0l7.135-2.56V1.388L8.443 3.948zm-7.7-13.8l7.2 2.043 6.696-2.16-6.696-2.273zm23.052 13.8l-7.135-2.56V1.388l7.135 2.56zm1.3 0l7.135-2.56V1.388l-7.135 2.56zM15.76 4.15l-6.697 2.273L15.76 8.687l6.696-2.273z" fill="#252f3e"/>
  <path d="M20.047 17.587l-.497 1.6 1.44-.278.248-.85-1.192-.472zm-4.45.85h-.895v1.062h.895c.388 0 .65-.213.65-.53 0-.354-.262-.531-.65-.531zm10.195-2.669h-1.312v3.938h.437V17.85h.875c.692 0 1.312-.443 1.312-1.041 0-.68-.62-1.042-1.312-1.042zm-16.415 0H8.064v3.938h.437V17.85h.875c.693 0 1.313-.443 1.313-1.041 0-.68-.62-1.042-1.313-1.042zm5.286-.234c-1.193 0-2.13.992-2.13 2.25s.937 2.25 2.13 2.25c1.192 0 2.128-.992 2.128-2.25s-.936-2.25-2.129-2.25zM5.4 14.8c-1.193 0-2.14.992-2.14 2.25s.948 2.25 2.14 2.25c1.066 0 1.941-.762 2.095-1.77h-.467c-.147.67-.752 1.18-1.628 1.18-.917 0-1.658-.757-1.658-1.66 0-.904.74-1.66 1.658-1.66.782 0 1.433.574 1.6 1.32h.467C7.304 15.61 6.455 14.8 5.4 14.8zm17.501 0c-1.193 0-2.14.992-2.14 2.25s.947 2.25 2.14 2.25c1.066 0 1.94-.762 2.094-1.77h-.466c-.148.67-.752 1.18-1.628 1.18-.918 0-1.658-.757-1.658-1.66 0-.904.74-1.66 1.658-1.66.781 0 1.432.574 1.6 1.32h.466C24.804 15.61 23.955 14.8 22.9 14.8zm3.925.1c-.52 0-.957.387-1.026.898h2.027c-.068-.505-.506-.897-1-.897zm-11.273 0c-.52 0-.957.387-1.026.898h2.027c-.069-.505-.506-.897-1.001-.897zm2.273 2.082c0 .925-.737 1.67-1.647 1.67s-1.647-.745-1.647-1.67c0-.925.737-1.669 1.647-1.669s1.647.744 1.647 1.669zm-10.337 1.811h-.466v-3.58h.466zm17.727-1.219H22.79l.547 1.219h-.496l-.531-1.18h-.389v1.18h-.436v-3.58h1.03c.693 0 1.349.398 1.349 1.154 0 .558-.315.945-.752 1.098l.583 1.269-.277.059zm-10.337 0H12.45l.547 1.219h-.495l-.531-1.18h-.39v1.18h-.436v-3.58h1.03c.693 0 1.35.398 1.35 1.154 0 .558-.315.945-.752 1.098l.583 1.269-.278.059zm-3.914.781c.383 0 .77-.213.882-.557h.447c-.17.64-.755 1.068-1.329 1.068-.917 0-1.657-.745-1.657-1.67 0-.924.74-1.67 1.657-1.67.574 0 1.16.452 1.33 1.07h-.447c-.113-.345-.5-.558-.883-.558-.693 0-1.174.558-1.174 1.158 0 .6.49 1.159 1.174 1.159zm15.329-1.98c0-.59-.388-.89-.881-.89h-.83v1.78h.83c.493 0 .88-.3.88-.89zm-16.414 0c0-.59-.388-.89-.882-.89h-.83v1.78h.83c.494 0 .882-.3.882-.89zm20.363-.89h.066c.399 0 .691.283.691.637 0 .352-.315.637-.691.637h-.066zm-10.112 2.578h.066c.399 0 .691-.3.691-.672 0-.371-.292-.672-.691-.672h-.066z" fill="#f90"/>
</svg>
