
<svg xmlns="http://www.w3.org/2000/svg" viewBox="0 0 32 32">
  <path fill="#FF9900" d="M9.48 13.12c0 .419.043.756.129 1.01.097.254.215.532.376.834.059.101.08.2.065.296-.32.113-.097.226-.194.338l-.647.431c-.97.064-.194.096-.291.096-.108 0-.215-.053-.323-.16-.151-.167-.281-.361-.388-.582-.118-.226-.226-.469-.334-.722-2.87 3.405-6.455 5.106-10.756 5.106-3.066 0-5.513-.879-7.333-2.638C-1.337 15.418-.92 12.978-.92 9.858c0-3.274 1.158-5.93 3.47-7.972 2.312-2.048 5.404-3.071 9.277-3.071 1.296 0 2.636.15 4.025.448 1.394.299 2.833.764 4.328 1.395V8.93c0 2.944-.686 5.004-2.059 6.176-.301.25-.624.448-.97.59-.347.142-.707.215-1.083.215-.474 0-.94-.138-1.399-.415-.459-.276-.856-.713-1.189-1.309v-.001l.01-.067zm-6.13 2.298c.884 0 1.804-.16 2.76-.481.956-.32 1.802-.89 2.533-1.712.431-.577.741-1.224.931-1.939.188-.722.281-1.59.281-2.606V7.366c-.873-.25-1.767-.433-2.683-.547-.92-.113-1.812-.171-2.674-.171-1.906 0-3.305.469-4.199 1.407-.893.938-1.339 2.259-1.339 3.962 0 1.617.371 2.85 1.114 3.7.742.849 1.835 1.273 3.277 1.273zm13.91 4.35c-.247 0-.452-.086-.611-.257-.16-.172-.292-.364-.292-.58v-.021l2.129-6.481-5.917-17.195v-.022c0-.193.075-.38.248-.58.16-.172.366-.257.612-.257h2.218c.324 0 .572.08.743.257.172.172.292.384.36.638l4.23 13.254 3.982-13.254c.054-.254.173-.466.345-.638.172-.172.431-.257.775-.257h1.804c.323 0 .572.086.743.257.171.172.291.387.345.638L33 19.669v.021c0 .216-.097.408-.27.58-.173.172-.41.257-.711.257h-2.153c-.344 0-.603-.096-.775-.288-.173-.193-.29-.385-.366-.578l-4.003-13.224-3.982 13.224c-.54.193-.183.385-.355.578-.173.192-.431.288-.776.288h-2.195v.001zm30.274-2.701c-.343 0-.557-.15-.644-.448-.194-.75-.28-1.549-.28-2.394v-3.684c0-1.705-.377-2.987-1.131-3.846-.753-.857-1.918-1.287-3.493-1.287-.484 0-.986.048-1.502.143-.516.096-1.026.23-1.529.4-.301.118-.601.237-.892.356-.291.118-.559.235-.8.35-.108.053-.216.075-.324.075-.247 0-.366-.172-.366-.516v-.814c0-.278.037-.494.108-.65.075-.16.216-.3.431-.418.538-.299 1.184-.549 1.939-.75a9.398 9.398 0 12.177-.3c.7 0 1.373.086 2.015.257.646.171 1.222.45 1.727.835.505.385.914.9 1.221 1.546.31.647.462 1.439.462 2.378v5.927c0 .343-.043.582-.129.717-.85.136-.237.204-.452.204h-1.621l.189.002zm-7.118.031c-.495 0-.948-.063-1.35-.188-.404-.126-.767-.353-1.088-.683-.189-.193-.323-.412-.4-.659-.077-.25-.113-.557-.113-.926V6.472c0-.32.043-.558.129-.707.086-.15.245-.225.474-.225h1.49c.226 0 .383.075.469.225.085.149.128.388.128.707v1.417h.043c.43-.857 1.001-1.471 1.712-1.843.709-.374 1.48-.56 2.308-.56.344 0 .689.021 1.033.064.345.043.69.118 1.034.226.15.053.28.128.387.226.107.096.16.245.16.447v1.288c0 .214-.075.374-.226.478-.15.107-.333.118-.548.032-.248-.064-.516-.118-.807-.16-.29-.043-.57-.064-.837-.064-1.076 0-1.928.341-2.553 1.021-.631.682-.946 1.768-.946 3.254v7.854c0 .343-.043.582-.129.717-.086.14-.237.204-.452.204h-1.918zm12.405-10.891c0-1.416.214-2.649.646-3.699.431-1.052 1.01-1.922 1.733-2.617a7.053 7.053 0 12.638-1.621c1.02-.363 2.106-.548 3.268-.548 1.162 0 2.249.17 3.269.532.893.321 1.689.795 2.39 1.417h.042V1.79c0-.32.033-.535.096-.643.107-.15.258-.225.453-.225h1.938c.193 0 .344.086.452.257.108.172.162.407.162.707v19.369c0 .3-.054.535-.162.706-.108.172-.259.258-.452.258H56.91a.468.468 0 01-.398-.257c-.086-.171-.129-.407-.129-.706v-1.331h-.043c-.377.578-.838 1.07-1.383 1.47-.698.513-1.478.9-2.34 1.155-1.022.342-2.105.513-3.252.513-1.15 0-2.227-.182-3.234-.546-.878-.321-1.677-.793-2.389-1.417-1.001-1.03-1.739-2.19-2.165-3.48-.425-1.29-.639-2.594-.639-3.916l.004-.003zm5.301.064c0 .92.13 1.8.387 2.637.26.836.624 1.546 1.092 2.122.47.577 1.034 1.035 1.69 1.37.656.337 1.377.51 2.16.51.787 0 1.519-.173 2.194-.51.677-.337 1.25-.793 1.722-1.37.47-.576.835-1.285 1.095-2.122.257-.836.388-1.714.388-2.637 0-.922-.13-1.798-.388-2.633-.26-.836-.624-1.536-1.095-2.098-.471-.562-1.045-1.007-1.722-1.333-.675-.327-1.407-.494-2.194-.494-.784 0-1.505.167-2.16.494-.656.326-1.224.771-1.69 1.333-.468.562-.832 1.262-1.092 2.098-.257.835-.387 1.71-.387 2.633zm28.108 10.827c-.141 0-.276-.021-.4-.064-.123-.043-.237-.15-.345-.32-.5-.664-.937-1.448-1.307-2.353-.377-.906-.726-1.875-1.044-2.904l-7.85-20.173c-.054-.15-.086-.278-.086-.385 0-.193.053-.342.161-.449.108-.107.247-.16.42-.16h2.081c.226 0 .398.042.516.128.118.086.215.235.291.45l6.389 17.163 5.929-17.163c.074-.214.163-.364.269-.45.107-.86.29-.128.551-.128h1.7c.226 0 .388.042.505.128.118.086.215.235.29.45L96.68 12.29l6.606-17.163c.076-.214.166-.364.277-.45.107-.86.279-.128.504-.128h1.982c.172 0 .312.053.42.16a.482.482 0 11.161.45c0 .042-.11.085-.32.128-.22.042-.43.107-.65.192l-8.089 20.312c-.333 1.029-.678 1.988-1.035 2.873-.361.885-.794 1.66-1.307 2.323-.108.172-.227.278-.355.32-.125.043-.26.064-.402.064h-1.852c-.258 0-.439-.037-.547-.112-.107-.075-.19-.23-.248-.467l-6.066-15.89-6.033 15.89c-.062.237-.145.393-.252.468-.103.074-.296.111-.543.111h-1.851zm35.431-20.814c-1.468 0-2.825.342-4.071 1.021-1.245.682-2.216 1.81-2.916 3.383h.046l.026-.067c.557 1.72 1.4 3.003 2.531 3.85 1.13.848 2.487 1.272 4.071 1.272.808 0 1.58-.114 2.318-.342a7.75 7.75 0 12.03-.926c.623-.385 1.157-.835 1.603-1.351.446-.516.781-1.053 1.009-1.611.053-.129.139-.235.252-.32.113-.86.252-.128.419-.128h1.94c.161 0 .297.048.41.145.113.096.17.23.17.4 0 .128-.33.269-.96.421-.29.836-.71 1.6-1.253 2.291-1.24 1.553-2.69 2.666-4.34 3.336-1.652.671-3.406 1.006-5.261 1.006-1.766 0-3.385-.298-4.856-.893-1.471-.593-2.74-1.428-3.808-2.503-1.07-1.073-1.896-2.351-2.488-3.835-.591-1.481-.887-3.107-.887-4.874 0-1.81.301-3.455.908-4.938.602-1.482 1.454-2.752 2.553-3.813 1.098-1.062 2.383-1.881 3.851-2.459 1.469-.579 3.082-.868 4.835-.868 1.917 0 3.695.337 5.335 1.007 1.64.671 3.066 1.789 4.274 3.351.43.578.796 1.191 1.097 1.841.3.65.452 1.244.452 1.784 0 .17-.059.31-.178.416-.116.107-.259.16-.426.16h-2.06c-.331 0-.535-.133-.612-.401-.312-.878-.876-1.669-1.694-2.373-1.162-1.009-2.669-1.513-4.524-1.513l-.002.003zm18.404-5.798c.226 0 .383.075.47.225.85.149.128.387.128.707v19.37c0 .32-.43.557-.129.705-.86.15-.244.226-.469.226h-1.94c-.226 0-.383-.075-.469-.226-.085-.148-.129-.386-.129-.706V7.563c0-.32.044-.558.129-.707.086-.15.243-.225.469-.225h1.94zm20.251 20.973c0 .878-.128 1.576-.387 2.097-.256.517-.62.931-1.09 1.245a4.431 4.431 0 11-1.657.717c-.634.149-1.339.224-2.12.224-.991 0-1.961-.171-2.91-.515-.949-.346-1.74-.825-2.372-1.438a.548.548 0 11-.193-.425c0-.15.054-.282.161-.4l.936-1.128c.107-.129.236-.193.387-.193.118 0 .237.042.355.128a7.455 7.455 0 11.786.734c.297.213.65.415 1.055.605.406.191.882.287 1.427.287.387 0 .747-.032 1.076-.096.334-.64.623-.176.87-.336.248-.16.442-.359.584-.595.14-.234.21-.521.21-.857 0-.45-.153-.815-.463-1.098-.312-.288-.71-.526-1.2-.717-.495-.196-1.04-.375-1.632-.545a23.788 23.788 0 01-1.712-.55c-.571-.208-1.113-.452-1.623-.733a6.53 6.53 0 11-1.427-1.114c-.409-.453-.731-1-.97-1.644-.236-.641-.355-1.407-.355-2.291 0-.775.134-1.471.404-2.083.268-.613.636-1.132 1.107-1.555a5.15 5.15 0 11.623-1.026c.59-.278 1.198-.49 1.825-.636a8.615 8.615 0 11.95-.225c.85 0 1.69.139 2.515.417.827.278 1.561.675 2.207 1.189a.636.636 0 11.229.497.626.626 0 01-.184.446l-.872 1.03c-.108.126-.227.191-.356.191-.107 0-.237-.043-.387-.129a7.207 7.207 0 00-.614-.417 4.518 4.518 0 00-.807-.384 5.414 5.414 0 00-.933-.272c-.323-.064-.66-.096-1.01-.096-.388 0-.764.038-1.13.111a3.279 3.279 0 00-.967.336c-.279.15-.503.341-.67.578-.171.235-.258.506-.258.812 0 .321.069.598.208.835.139.234.344.443.618.624.269.18.59.342.967.482.376.139.795.273 1.253.4.8.215 1.577.457 2.326.724.754.266 1.417.604 1.993 1.014.575.407 1.036.915 1.384 1.522.347.608.522 1.342.522 2.2l-.003.003z"/>
</svg>
