
<svg xmlns="http://www.w3.org/2000/svg" viewBox="0 0 32 32">
  <defs>
    <linearGradient id="canva-gradient" x1="0%" y1="0%" x2="100%" y2="100%">
      <stop offset="0%" stop-color="#00C4CC" />
      <stop offset="50%" stop-color="#7D2AE7" />
      <stop offset="100%" stop-color="#0052CC" />
    </linearGradient>
  </defs>
  <circle cx="16" cy="16" r="16" fill="url(#canva-gradient)" />
  <path fill="#fff" d="M10.5,14.6c0,0.6,0.2,1.1,0.5,1.5c0.3,0.4,0.8,0.6,1.4,0.6c0.6,0,1-0.2,1.4-0.6c0.3-0.4,0.5-0.9,0.5-1.5c0-0.6-0.2-1.1-0.5-1.5c-0.3-0.4-0.8-0.6-1.4-0.6c-0.6,0-1,0.2-1.4,0.6C10.7,13.5,10.5,14,10.5,14.6z M18.8,10.2c-1,0-1.8,0.5-2.4,1.5l-0.1-1.3h-2.3v11.5h2.5v-4.2c0.5,0.9,1.3,1.4,2.3,1.4c1.1,0,2-0.4,2.7-1.3c0.7-0.9,1-2,1-3.3c0-1.4-0.3-2.5-1-3.3C20.9,10.7,20,10.2,18.8,10.2z M18.3,16.4c-0.3,0.4-0.8,0.7-1.3,0.7c-0.5,0-1-0.2-1.3-0.7c-0.3-0.4-0.5-1-0.5-1.8c0-0.7,0.2-1.3,0.5-1.8c0.3-0.4,0.8-0.7,1.3-0.7c0.5,0,1,0.2,1.3,0.7c0.3,0.4,0.5,1,0.5,1.8C18.8,15.4,18.7,16,18.3,16.4z" />
</svg>
