
<svg xmlns="http://www.w3.org/2000/svg" viewBox="0 0 512 512">
  <path fill="#00C4CC" d="M342.4 156.7c-17.8-1.3-33.5 3.2-44.8 13.3-5.8 4.6-9.8 10.5-11.9 18-4.5 17.8 6.5 38.4 12.6 45.3 5.4 6 11.5 10.5 17.6 14.7 3.9 2.7 7.7 5.3 11.5 8 3.5 2.5 7 5.1 10.5 7.6 3.6 2.5 7.3 5 10.9 7.5 3.6 2.4 7.1 4.9 10.7 7.4 2.1 1.4 4.2 2.8 6.4 4.3l.9-1.1h.1v-.2c5.4-7.5 10.9-15 16.3-22.5 5.7-7.7 11.5-15.5 17.3-23.2 1.3-1.7 2.6-3.4 3.8-5.1-6.4-4.3-12.9-8.5-19.5-12.5-14.1-8.5-27.2-15.6-40.4-28.2-6.7-7.5-7.2-16.7-5.8-21.9.8-2.8 2.5-5.1 4.9-6.8 3.6-2.6 8.9-3.8 15.8-3.4 21.9.9 45.6 22.9 59.9 37.5-30.5 41.4-61.1 82.8-91.6 124.2-1.8 1.8-3.3 3.9-4.5 6.2-1.9 3.9-2.3 8.4-.9 13 1.3 4.5 4.6 9.3 9.5 13.8 4.9 4.4 10.8 8 16.7 10.5 4.6 2 9.4 3.1 14.2 3.5 4.7.4 9.6-.3 14-2 4.3-1.8 8.3-4.5 11.2-8.8 35.4-47.9 70.9-95.7 106.3-143.6 4.4-6.7 2.3-15.5-2.2-21.3-8.2-11.1-16.4-22.1-24.6-33.1-7.5-8.9-14.9-17.8-22.2-26.9-6.3-6.5-11.2-10.2-19.3-14-6.1-2.9-13-4.8-21-5.7-5.8-.5-11.5-.6-17-.2-4.2.3-8.5 1.3-11.3 2.1zM172.6 157.8c-11.6 1.4-21.5 5.7-29.2 12.5-5 4.5-8.9 9.8-11.8 15.9-6 13-6.5 29.1-1.3 43.1 5.2 14 15.5 25.8 27.9 33.5 12.3 7.6 26.6 11.1 38.3 12.3 2.9.3 5.8.5 8.5.5s5.2-.2 7.4-.5c2.1-.3 3.8-.7 5-1.1 1-.2 1.7-.4 1.7-.4l.1-.3c3.7-16.7 7.3-33.3 11-50 4-16.9 8-33.9 11.9-50.8.1-.4.2-.9.3-1.4-4.9-.8-9.9-1.3-15.1-1.3-1.3 0-2.7 0-4.1.1h-.2c-.4.9-.9 1.7-1.5 2.5-6.6 10.2-15.3 19.2-25.2 26.7-8.1 6.1-16.9 10.7-26.4 13.4-2.3.7-4.6 1.2-7 1.5-1.7.2-3.1.3-4.3.4-1.2 0-2.3.1-3.5 0 0 0-.6 0-1.7-.3-.9-.3-2.2-.7-3.6-1.5s-2.9-1.9-4.3-3.5c-1.5-1.6-2.8-4-3.1-7-.2-1.5 0-2.8.3-4.1.4-1.3.9-2.5 1.6-3.6 1.3-2.3 3.3-4.4 5.6-6.2 3.4-2.6 7.6-4.5 12.3-5.6 6.7-1.6 14.3-1.5 21.5.1 1 .2 2 .5 3 .8 1.2-5 2.4-10.1 3.6-15.1 1.1-4.6 2.2-9.1 3.3-13.7-1.5-.3-3.1-.6-4.6-.7-5-.6-9.9-.7-14.5-.5zM318.5 338.1c-7.4 10-14.8 20-22.2 30.1-3.7 5-7.3 10-11 14.9-1.9 2.5-3.7 5-5.6 7.5-9.3 12.8-18.7 25.5-28.2 38.3-.3.4-.5.7-.8 1.1-4.1 5.6-8.3 11.2-12.4 16.8-1.4 1.9-2.8 3.9-4.2 5.8 17.1 2.1 34.1 4.1 51.2 6.2 2.7-3.7 5.4-7.5 8.1-11.2 2.1-3 4.3-5.9 6.4-8.9 7.6-10.6 15.2-21.1 22.7-31.7 8.3-11.5 16.6-23.1 24.8-34.6-9.6-11.4-19.2-22.7-28.8-34.3z"/>
</svg>
