
<svg xmlns="http://www.w3.org/2000/svg" viewBox="0 0 384 512">
  <path fill="#0ACF83" d="M127.8 420.5c-22 0-40-18-40-40.1s18-40 40-40 40 18 40 40-18 40.1-40 40.1zm0-233.4c-22 0-40-18-40-40s18-40 40-40 40 18 40 40-18 40-40 40m128 66.7c-22 0-40-18-40-40s18-40 40-40 40 18 40 40-18 40-40 40"/>
  <path fill="#A259FF" d="M127.8 180.5h-39.8c0-22 18-40 40-40h39.8c-22 0-40 18-40 40m0 100h-39.8c0-22 18-40 40-40h39.8c-22 0-40 18-40 40m0 100h-39.8c0-22 18-40 40-40h39.8c-22 0-40 18-40 40"/>
  <path fill="#F24E1E" d="M128 280.5c22 0 40-18 40-40h-39.8c-22 0-40 18-40 40s18 40 40 40z"/>
  <path fill="#FF7262" d="M128 180.5c22 0 40-18 40-40h-39.8c-22 0-40 18-40 40s18 40 40 40h39.8c-22 0-40-18-40-40"/>
  <path fill="#1ABCFE" d="M255.8 180.5c22 0 40-18 40-40s-18-40-40-40h-39.8c22 0 40 18 40 40s-18 40-40 40h39.8"/>
</svg>
