
<svg xmlns="http://www.w3.org/2000/svg" viewBox="0 0 48 48">
  <path fill="#40C4FF" d="M26.37,45.54l-0.07-0.08l-14.92-14.9l-0.09-0.16l5.78-5.81l0.19-0.08l9.09,9.14l18.53-18.53h0.02L44.8,15.01 L26.37,33.45V45.54z"/>
  <path fill="#03A9F4" d="M33.57,15.12L15.04,33.66l9.74,9.76l0.01-11.93l18.46-18.4L33.57,15.12z"/>
  <path fill="#01579B" d="M15.28,33.62L4.48,22.82l5.8-5.83L21.08,27.8l-0.01,11.91L15.28,33.62z"/>
  <path fill="#084994" d="M21.46,27.7L4.66,10.9L10.19,5.37l23.38,0.06l-0.02,0.02h0L15.19,23.81L21.46,27.7z"/>
</svg>
