
<svg xmlns="http://www.w3.org/2000/svg" viewBox="0 0 32 32">
  <path fill="#13AA52" d="M15.9.087l.854 1.604c.192.296.4.558.645.802.715.715 1.394 1.464 2.004 2.266 1.447 1.9 2.423 4.01 3.12 6.292.418 1.394.645 2.824.662 4.27.07 4.323-1.412 8.035-4.4 11.12-.488.488-1.01.94-1.57 1.342-.296 0-.436-.227-.558-.436-.227-.383-.366-.802-.436-1.222-.105-.523-.174-1.046-.14-1.586v-.244c-.024-.052-.285-24.052-.285-24.052z" />
  <path fill="#13AA52" d="M15.9.034c-.035-.07-.07-.017-.105.017.017.35-.105.085-.035.12.06.104.105.208.14.296.41.82.522 1.68.627 2.555.105.873.122 1.77.052 2.653-.052.662-.174 1.324-.296 1.97-.244 1.324-.627 2.6-1.046 3.865-.14.44-.296.89-.488 1.306-.105.244-.21.488-.314.75-.017.07-.35.14-.07.162-.14.314-.314.61-.45.91-.105.21-.192.436-.314.646-.052.104-.17.244-.21.383 0 .035-.024.07-.024.104-.01.21-.087 1.46-.122 1.67-.07.383-.105.784-.157 1.167v.07c-.017.052-.977 2.845-1.046 2.953-.7.105-.42.174-.105.26-.184.314-.423.628-.627.928-.07.087-.14.174-.227.244a.986.986 0 0 0-.26.314c-.087.14-.21.244-.314.366v.017c-.087.122-.174.227-.244.35-.07.14-.226.244-.105.436v.07c.174.244.366.488.488.767.174.17.314.348.417.54.035.104.07.174.157.244.7.07.174 0 .244-.07.244-.244.54-.453.75-.732.19-.28.366-.575.488-.89.105-.21.174-.435.21-.663.017-.087.035-.157.07-.227.075-.386.757-2.782.767-2.87.14-.488.262-.94.366-1.427.21-.977.314-1.97.366-2.988 0-.157.017-.296.017-.452.017-.174.087-.314.227-.417.07-.052.157-.07.227-.122.07-.035.14-.087.157-.157.104-.244.07-.558-.07-.767-.07-.087-.14-.157-.227-.21-.105-.087-.21-.157-.296-.26z" />
  <path fill="#13AA52" d="M18.105 15.014c-.17-.244-.366-.454-.558-.662-.574-.66-1.193-1.275-1.836-1.9-.087-.087-.174-.122-.227-.122-.105.017-.122.07-.122.174v.296c-.017.21-.052.396-.105.558-.17.68-.314 1.343-.488 2.022v.052c-.105.557-.21 1.133-.314 1.69-.17.087-.017.174-.035.26v.035c-.052.314-.087.627-.157.94-.052.314-.122.628-.21.928-.157.558-.296 1.133-.488 1.67-.105.244-.21.488-.314.75-.14.383-.296.767-.47 1.133-.157.366-.314.732-.488 1.08-.035.053-.07.123-.105.21-.017.07-.017.122-.07.157 0 .14.035.244.157.244h.052c.21 0 .44-.052.662-.07.21-.017.417-.087.61-.157.366-.14.732-.296 1.08-.47.21-.105.417-.244.627-.366.574-.366 1.133-.75 1.655-1.222.052-.07.14-.105.21-.174.437-.4 1.253-1.54 1.62-1.994.263-.348.508-.714.714-1.097.374-.73.627-1.518.73-2.338.017-.105.035-.227.052-.314.017-.122.035-.244.07-.366.07-.383.052-.767-.018-1.15-.07-.47-.208-.94-.435-1.357z" />
</svg>
