
<svg xmlns="http://www.w3.org/2000/svg" viewBox="0 0 32 32">
  <path d="M15.9.087l.854 1.604c.192.296.4.558.645.802a6.816 6.816 0 011.338 2.05c.463 1.043.753 2.15.753 3.322 0 1.152-.253 2.117-.753 3.073a6.784 6.784 0 01-2.079 2.374c-1.027.744-2.148 1.289-3.305 1.694-.742.286-1.514.517-2.273.694l-.114.032c-.21-.015-.42-.033-.63-.055a17.44 17.44 0 01-2.524-.467c-.347-.107-.693-.222-1.028-.353a11.875 11.875 0 01-2.94-1.665 7.99 7.99 0 01-1.157-1.022 6.719 6.719 0 01-1.66-4.505c0-1.618.425-3.116 1.26-4.495.795-1.267 1.932-2.34 3.435-3.126C6.592 1.077 7.91.65 9.33.41c.87-.102 1.74-.142 2.61-.119l.195.002c.58.016 1.15.06 1.706.14C14.536.71 15.25.984 15.9.087z" fill="#599636"/>
  <path d="M15.9.034c-.62.062-1.228.308-1.78.628A9.64 9.64 0 0012.274 2.3a11.486 11.486 0 00-1.354 1.223c-1.386 1.43-2.222 3.208-2.628 5.118-.403 1.707-.356 3.478-.025 5.174.33 1.647 1.002 3.165 1.97 4.457.298.428.616.846.975 1.22a14.565 14.565 0 002.76 2.13c.578.322 1.16.675 1.75.97.138.07.29.14.427.217.474.235.93.515 1.4.764.12.063.245.14.245.288.043.14.028.236.028.36.006 1.082.011 2.166.01 3.25 0 .075.004.148.01.223.03.434.1.866.367 1.204.045.06.101.113.154.167.166.165.358.297.568.395.253.103.13.09.35.057.14-.02.275-.064.407-.124.083-.036.164-.077.243-.122.289-.16.516-.39.67-.675a5.433 5.433 0 00.391-1.06 3.79 3.79 0 00.125-.985c.004-.258.007-.515.006-.773a91.625 91.625 0 00-.031-1.963c-.006-.374.172-.419.46-.561.518-.249 1.018-.55 1.513-.854a13.494 13.494 0 002.158-1.572c.262-.228.514-.464.749-.717a8.296 8.296 0 001.375-1.877c.41-.778.71-1.603.892-2.452.164-.731.252-1.477.246-2.224-.004-.579-.07-1.156-.192-1.721a8.718 8.718 0 00-.713-1.897c-.343-.647-.744-1.249-1.18-1.826a9.216 9.216 0 00-1.336-1.39 10.818 10.818 0 00-2.473-1.657c-.674-.336-1.374-.627-2.086-.892-.872-.33-1.797-.448-2.718-.609-.127-.022-.254-.053-.38-.082-.076-.017-.152-.028-.226-.055-.923-.339-1.841-.714-2.8-.911-.07-.015-.145-.037-.218-.04-.249-.006-.497-.06-.746-.089-.128-.015-.254-.057-.386-.05a16.987 16.987 0 00-1.956.033z" fill="#6cac48"/>
  <path d="M16.12 29.09c.118.266-1.475-4.695-1.586-4.99-.045-.122-.091-.243-.154-.355a1.823 1.823 0 00-1.149-.793c-.122-.031-.247-.061-.358-.118-.585-.302-1.105-.777-1.627-1.189a17.13 17.13 0 01-1.727-1.65c-.583-.629-1.132-1.276-1.614-1.976-.888-1.275-1.53-2.682-1.93-4.192-.23-.872-.361-1.76-.43-2.656-.069-.952-.05-1.906.071-2.853.104-.916.276-1.824.54-2.703.14-.481.311-.95.51-1.405.68-1.54 1.679-2.912 2.894-4.055.368-.347.75-.68 1.152-.985a11.622 11.622 0 011.567-.983c.524-.274 1.062-.523 1.629-.704.284-.09.571-.173.861-.245.266-.065.532-.133.803-.166.907-.113 1.835-.111 2.744.007.825.133 1.646.294 2.437.61.473.19.947.403 1.398.648.947.514 1.776 1.207 2.55 1.94.268.254.523.518.771.787.248.268.48.547.7.834a9.765 9.765 0 011.653 4.204c.116.894.123 1.793.035 2.69-.098.956-.349 1.896-.68 2.8-.4 1.035-.94 2.01-1.599 2.885-.226.3-.467.587-.72.862-.665.775-1.35 1.525-2.078 2.229-.519.507-1.063.991-1.656 1.398-.684.467-1.388.97-2.17 1.235z" fill="#c2bfbf"/>
</svg>
