
<svg xmlns="http://www.w3.org/2000/svg" viewBox="0 0 512 512">
  <path fill="#13AA52" d="M256 8C119.977 8 8 119.975 8 256s111.977 248 248 248 248-111.975 248-248S392.023 8 256 8zm133.419 404.645l-1.531-6.229c-7.2-31.538-42.794-56.891-68.118-68.891V203.709c22 14.362 53.056 48.632 53.056 98.812 0 25.799 20.007 51.299 44.8 51.299.909 0 1.827-.051 2.745-.153-9.925 14.625-21.871 27.794-35.558 39.058 2.154 6.2 4.218 12.836 5.906 20.546.027.117.026.238.055.355l-.038.001c12.037-8.51 23.115-18.329 33.012-29.307 8.291-9.173 15.74-19.092 22.389-29.623-4.91 1.394-9.985 2.097-15.087 2.097-24.923 0-65.346-23.012-68.644-66.888-1.677-22.281 3.338-47.111 15.052-67.942 12.558-21.117 17.118-46.193 12.766-70.435h-.047v-.077c-4.871-24.876-20.561-46.512-43.907-60.509l.227 19.861c-5.538-2.555-11.282-4.713-17.238-6.407l-.057-.015-.28.003c-32.576-9.223-67.348-9.224-99.926-.001l-.28-.003-.057.015c-5.955 1.695-11.699 3.855-17.237 6.409l.227-19.861c-23.346 13.996-39.036 35.633-43.907 60.509v.077h-.047c-4.352 24.241.208 49.318 12.766 70.435 11.713 20.831 16.729 45.661 15.052 67.942-3.298 43.876-43.721 66.888-68.644 66.888-5.102 0-10.177-.703-15.087-2.097 6.649 10.531 14.098 20.45 22.389 29.623 9.897 10.979 20.976 20.797 33.013 29.307l-.038-.001c.028-.117.028-.238.055-.355 1.687-7.71 3.752-14.346 5.906-20.546-13.687-11.264-25.633-24.433-35.558-39.058.918.102 1.836.153 2.745.153 24.792 0 44.8-25.499 44.8-51.299 0-50.18 31.056-84.45 53.056-98.812v133.816c-25.324 12-60.918 37.353-68.118 68.891l-1.531 6.229C164.643 370.734 149.51 341.3 149.51 256c0-58.384 46.817-106.027 102.275-107.98l4.126-.104 4.126.104C315.492 149.973 362.31 197.616 362.31 256c0 85.3-15.132 114.734-72.891 156.645z"/>
</svg>
