
<svg xmlns="http://www.w3.org/2000/svg" viewBox="0 0 512 512">
  <path fill="#336791" d="M256 8C119.033 8 8 119.033 8 256s111.033 248 248 248 248-111.033 248-248S392.967 8 256 8zm0 464c-118.663 0-216-96.055-216-216 0-118.663 97.337-216 216-216 118.663 0 216 97.337 216 216 0 119.945-97.337 216-216 216z"/>
  <path fill="#336791" d="M181.79 187.464c.026-1.893 1.14-3.536 2.852-4.189 9.561-3.59 19.247-6.798 29.077-9.604 4.708-1.336 9.494-2.169 14.362-2.687 10.089-1.062 20.178-.512 30.054 1.696 6.342 1.428 12.509 3.487 18.297 6.493 3.287 1.62 6.025 3.97 8.499 6.514 1.788 1.829 3.458 3.777 4.897 5.897 1.427 2.147 2.12 4.611 2.231 7.15.133 2.63-.16 5.24-.786 7.814-.23.98-.82 1.264-1.7 1.418-2.775.5-5.474-.062-7.88-1.483-1.142-.667-2.145-1.523-3.232-2.27-2.257-1.556-4.648-2.884-7.206-3.822-3.225-1.162-6.448-1.923-9.895-1.548-1.833.207-3.687.38-5.52.646-1.087.154-2.142.5-3.195.852-1.223.418-2.423.915-3.636 1.363-4.84 1.794-9.416 4.122-13.57 7.117-5.698 4.103-10.61 9.227-15.622 14.125-2.145 2.213-4.3 4.365-6.964 5.981-1.832 1.173-3.826 1.935-5.962 2.053-2.293.127-4.473-.388-6.58-1.1-4.368-1.48-8.022-4.3-11.31-7.533-3.003-2.903-5.563-6.135-8.15-9.376-.695-.8-.982-1.74-.795-2.827.16-1.13.766-1.937 1.82-2.515 1.687-.9 3.424-1.698 5.14-2.538 1.133-.555 2.28-1.08 3.414-1.635zm126.75 218.796c-.986.128-1.986.118-2.982.167-.953.018-1.906.034-2.86.047-3.392.048-6.773-.176-10.156-.48-5.365-.483-10.766-.55-16.16-.448-7.177.135-14.354.289-21.53.433-3.198.069-6.443.026-9.61-.535-3.745-.667-7.393-1.723-10.96-3.054-3.11-1.16-6.165-2.46-9.185-3.855-1.892-.893-3.756-1.846-5.594-2.847-1.633-.85-3.196-1.806-4.778-2.73-.148-.075-.31-.128-.477-.212-1.895-.738-2.693-2.127-2.28-4.19.275-1.27.075-2.388-1.033-3.154-.654-.388-1.423-.274-2.142-.11-.728.164-1.39.549-1.995.99-1.222.851-2.426 1.725-3.642 2.585-1.624 1.15-3.257 2.258-5.293 2.624-2.93.538-5.614-.992-6.766-3.576-.728-1.601-.952-3.356-1.237-5.08-.516-3.14-.812-6.32-.79-9.496.047-4.843.544-9.668 1.053-14.485.477-4.512 1.116-9.001 1.184-13.537.042-2.793-.216-5.548-.892-8.255-.416-1.622-.917-3.228-1.47-4.81a31.117 31.117 0 00-2.388-5.798 46.73 46.73 0 01-1.845-4.075c-.784-1.996-1.423-4.04-1.991-6.097-.69-2.435-1.254-4.955-1.21-7.488.038-2.126.419-4.125 1.855-5.794 1.423-1.67 3.285-2.107 5.286-1.664 1.363.316 2.643.897 3.944 1.394 2.005.77 4.047 1.437 6.207 1.671 2.802.313 5.413-.413 7.932-1.51 2.844-1.238 5.38-2.949 7.64-4.98 3.01-2.7 5.623-5.759 8.19-8.856 2.154-2.634 4.155-5.376 6.262-8.04 1.09-1.38 2.362-2.644 3.576-3.932.757-.81 1.587-1.547 2.353-2.345 1.038-1.062 2.348-1.617 3.864-1.658 1.985-.069 3.565.812 4.945 2.065 1.539 1.4 2.929 2.949 4.21 4.593 2.471 3.159 3.73 6.764 3.065 10.935-.175 1.122-.071 2.288.274 3.375.543 1.678 1.372 3.26 1.952 4.93.6 1.518 1.203 3.042 1.738 4.595.453 1.274.775 2.586 1.176 3.875.381 1.211.95 2.358 1.23 3.584.617 2.674 1.153 5.37 1.58 8.077.334 2.111.573 4.236.902 6.35.236 1.544.892 2.931 1.892 4.088 1 1.158 2.108 2.158 3.49 2.819 2.107 1.006 4.24 1.154 6.486.629 1.807-.434 3.605-.906 5.392-1.417 2.38-.686 4.75-1.41 7.112-2.144 2.901-.863 5.796-1.76 8.697-2.642 2.284-.673 4.578-1.316 6.858-1.997 2.343-.694 4.675-1.428 7.02-2.124 2.387-.706 4.78-1.397 7.181-2.063 2.687-.745 5.385-1.454 8.082-2.157 1.043-.269 2.105-.462 3.148-.734.73-.189 1.441-.442 2.167-.652.995-.281 1.731.411 1.968 1.427.285 1.198-.15 2.142-1.335 2.494-1.122.335-2.25.65-3.376.97-2.614.737-5.23 1.464-7.842 2.202-2.456.694-4.908 1.396-7.354 2.128-2.445.731-4.88 1.483-7.309 2.257-2.512.802-5.016 1.633-7.515 2.477-1.167.402-2.31.881-3.465 1.316-1.178.471-2.372.903-3.535 1.409-1.428.624-2.846 1.277-4.252 1.951-1.288.613-2.635 1.04-3.915 1.172.208.017.419.01.627.056l.026-.004c1.854-.23 3.699-.324 5.561-.209 1.82.113 3.626.36 5.422.687 1.752.32 3.488.77 5.213 1.235 2.562.693 5.08 1.548 7.592 2.403 1.426.484 2.818 1.046 4.23 1.556.583.192 1.19.315 1.783.451.969-.257 1.678-.089 2.23.68.3.419.589.843.805 1.313a20.214 20.214 0 11.826 4.637c.704 2.534 1.248 5.106 1.434 7.716.232 3.206-.161 6.409-.073 9.607.117 4.204.145 8.414.206 12.622.007.548 0 1.096 0 1.833.227-.128.33-.183.429-.242.59-.351 1.176-.709 1.773-1.052.806-.463 1.632-.895 2.415-1.39a77.054 77.054 0 0010.58-7.85c2.765-2.386 5.391-4.908 7.193-8.103.687-1.22 1.144-2.539 1.642-3.838.604-1.577 1.131-3.182 1.824-4.717.736-1.63 1.907-3.006 3.429-3.894 1.28-.748 2.66-1.285 4.144-1.307 1.148-.039 2.299.154 3.445.254 1.097.1 2.19.216 3.285.318 1.42.133 2.842.251 4.261.396.652.067 1.3.168 1.947.272.737.118 1.471.257 2.206.389.803.144 1.073.506.98 1.329-.45.399-.156.809-.31 1.177-2.02 4.87-4.242 9.646-7.328 13.982a49.448 49.448 0 01-8.508 9.693c-1.574 1.407-3.214 2.734-4.852 4.066-.95.772-1.715 1.69-2.009 2.915-.31 1.3.085 2.34 1.14 3.173 1.106.875 2.298 1.265 3.682 1.19 2.05-.113 3.926-.817 5.79-1.527 1.958-.737 3.857-1.617 5.77-2.456 1.593-.696 3.16-1.462 4.753-2.16a162.63 162.63 0 015.726-2.414c.562-.227 1.17-.348 1.759-.512.941-.262 1.778.194 2.317.989.168.248.302.516.45.776.172.307.346.611.588 1.038z"/>
  <path fill="#336791" d="M209.09 193.108c.378-.656.605-1.238.965-1.71 1.528-1.926 3.526-3.1 5.86-3.708 1.175-.318 2.36-.587 3.576-.684 1.364-.106 2.753.121 4.135.125 3.031.009 5.983.374 8.867 1.17 2.895.802 5.485 2.099 7.975 3.634 1.345.83 2.612 1.76 3.346 3.163.394.75.595 1.525.594 2.372 0 .357-.055.715-.087 1.072-.162 1.83-.981 3.372-2.105 4.754-1.047 1.331-2.267 2.516-3.544 3.628-2.88 2.5-6.251 4.103-9.788 5.305a44.843 44.843 0 01-10.514 2.227c-2.742.212-5.48.202-8.193-.204-3.053-.456-5.973-1.37-8.479-3.399-1.714-1.386-2.991-3.12-3.251-5.41-.315-2.829 1.113-5.25 2.15-7.666.986-2.313 2.233-4.5 3.351-6.75.74-1.502 1.489-3 2.23-4.502.041-.08.053-.17.069-.231-.019-.02-.039-.038-.059-.057-.067.062-.14.118-.199.188-.217.256-.427.519-.65.767-1.195 1.33-2.388 2.657-3.59 3.982-.362.398-.74.783-1.129 1.156-.304.293-.633.559-.967.817-.408.317-.82.239-1.24 0-.077-.044-.147-.098-.221-.146-1.168-.762-2.221-1.672-3.126-2.734-.459-.537-.834-1.133-1.22-1.722-.781-1.197-1.016-2.555-.962-3.947.07-1.836.747-3.489 1.747-4.992 1.524-2.284 3.39-4.284 5.412-6.114 2.194-1.982 4.668-3.553 7.313-4.846 2.402-1.18 4.872-2.217 7.456-2.957 1.426-.408 2.869-.782 4.343-.964 2.522-.348 5.028-.263 7.534.128 1.883.293 3.7.843 5.363 1.703 1.377.71 2.588 1.622 3.512 2.879 1.033 1.404 1.595 2.976 1.673 4.739.08 1.813-.45 3.424-1.193 5.006-.314.672-.72 1.31-1.1 1.953-.387.655-.793 1.298-1.208 1.93-.442.674-.905 1.334-1.355 2.002-.485.722-.964 1.447-1.45 2.168-.497.739-1.008 1.47-1.5 2.211-.526.795-1.033 1.602-1.56 2.395-.498.748-1.018 1.484-1.523 2.227-.625.918-1.253 1.835-1.867 2.76-.634.959-1.269 1.919-1.879 2.896-.263.42-.47.876-.687 1.322-.063.129-.052.297-.076.448.3.072.53.196.1.208.94.026.198.001.296-.005 2.516-.144 5.002-.459 7.482-.868.645-.106 1.292-.231 1.959-.351-.855.638-1.683 1.239-2.535 1.803-1.508 1-3.115 1.832-4.751 2.616-2.658 1.27-5.405 2.334-8.29 2.9-2.4.47-4.828.816-7.294.77-2.278-.04-4.532-.281-6.777-.811-1.52-.358-2.993-.855-4.396-1.557-.883-.442-1.698-.995-2.513-1.515-.192-.145-.354-.322-.53-.484-.31-.29-.574-.634-.268-1.185.466-.167.94-.282 1.43-.363.511-.085 1.034-.1 1.552-.15 1.122-.108 2.244-.21 3.367-.318.215-.021.43-.056.75-.097z"/>
</svg>
