
<svg xmlns="http://www.w3.org/2000/svg" viewBox="0 0 32 32">
  <path fill="#336791" d="M16 2C8.268 2 2 8.268 2 16s6.268 14 14 14 14-6.268 14-14S23.732 2 16 2zm9.979 15.334c-.163 1.119-.716 1.936-1.327 2.487-.66.594-1.402.934-2.16 1.093-.835.176-1.643.164-2.401.133-.223-.009-.444-.022-.665-.036h-.002c-.443-.027-.89-.068-1.401-.126a48.839 48.839 0 0 1-1.102-.134c.28-1.165.414-2.843.414-3.58 0-2.099 1.435-2.952 2.62-3.659 1.333-.794 2.687-1.036 4.056-1.036.792 0 1.548.093 2.2.262.56.153 1.045.38 1.397.675.708.569 1.616 1.895.371 3.921zm-18.156.33c-.053-.019-.103-.033-.15-.05a9.171 9.171 0 0 1-1.355-.598c-.587-.314-1.13-.695-1.593-1.138a5.948 5.948 0 0 1-1.033-1.249c-.464-.756-.77-1.943-.145-2.749.586-.753 1.894-1.213 3.071-1.1.912.09 1.766.382 2.552.824.97.541 1.882 1.28 2.716 2.184.036.04.072.08.108.122 0 0-2.247.383-3.365.875-.158.07-1.633.726-1.162 2.146.31.935.56.733.356.733zM16.5 21.262c-.062 1.609-.512 3.174-1.416 4.442-.179.239-.363.464-.554.675a8.882 8.882 0 0 1-1.753 1.404c-1.068.636-2.43 1.085-3.953.854-.291-.044-.58-.113-.861-.207-.297-.099-.596-.228-.891-.389a5.039 5.039 0 0 1-.81-.556c-.2-.168-.398-.359-.602-.575-.177-.187-.368-.404-.56-.647-.92-1.164-1.707-2.986-1.07-5.143.067-.23.147-.449.24-.657.127-.293.275-.57.44-.821a5.116 5.116 0 0 1 1.65-1.601c.096-.058.193-.114.29-.167.258-.138.519-.253.764-.314.278-.07.533-.09.763-.09.738 0 1.198.22 1.432.336.055.026.108.05.143.07.589.312 1.075.648 1.476.978.91.746 1.437 1.477 1.77 1.95.015.023.03.044.046.066.274.398.605.894.839 1.374.244.505.427 1.023.5 1.59.02.146.037.294.053.44.02.177.038.354.054.538zM16 3.225c3.86 0 7.153 2.423 8.453 5.831-.457-.125-1.052-.192-1.877-.192-1.506 0-3.176.248-4.921 1.327-1.558.929-3.54 2.3-3.54 5.233 0 .437-.128 2.3-.422 3.673l-.094-.012c-.246-.033-.497-.066-.747-.092-.204-.021-.41-.042-.61-.04-.562.003-.962.051-1.265.106-.644.112-1.119.291-1.536.492a7.07 7.07 0 0 0-.839.48c-.362.235-.642.444-.918.629l-.016.01c-.347.24-.662.458-1.073.671-.402.206-.882.403-1.369.514-.163.037-.328.064-.494.082-.296.032-.594.034-.891.005a3.66 3.66 0 0 1-1.709-.549c-.233-.146-.464-.32-.687-.522-.103-.093-.208-.194-.315-.304-.231-.237-.468-.53-.614-.835a2.075 2.075 0 0 1-.252-1.024c.013-.217.061-.435.141-.648.217-.582.645-1.124 1.122-1.538.137-.117.28-.225.428-.323.152-.1.31-.189.472-.264.156-.073.315-.133.473-.179a2.59 2.59 0 0 1 .745-.101c.391 0 .746.086 1.084.196.368.12.727.275 1.08.458.079.04.157.082.235.125.023.013.064.004.057-.037a7.386 7.386 0 0 0-.05-.179c-.021-.075-.044-.15-.064-.223a7.714 7.714 0 0 0-.134-.383 7.532 7.532 0 0 0-.155-.363 5.58 5.58 0 0 0-.336-.634 6.013 6.013 0 0 0-.553-.763 9.865 9.865 0 0 0-.923-.952c-.846-.767-1.823-1.302-2.748-1.877-.501-.31-1.008-.644-1.414-1.117a4.363 4.363 0 0 1-.629-.936 2.936 2.936 0 0 1-.28-1 2.142 2.142 0 0 1 .02-.577 1.93 1.93 0 0 1 .303-.743C6.926 3.922 11.09 3.225 16 3.225z"/>
</svg>
