
<svg xmlns="http://www.w3.org/2000/svg" viewBox="0 0 32 32">
  <path d="M23.557 23.343c-.08 1.155-.68 1.948-1.764 2.373-1.524.6-3.1.147-3.932-1.14-.132-.202-.212-.45-.392-.847l-.133.213c-.254.408-.479.745-.671 1.1a1 1 0 01-.14.206l.012-.006c-.31.45-.62.878-.961 1.29-1.033 1.273-2.268 1.465-3.634.893-.954-.4-1.646-1.132-1.898-2.14-.26-1.055-.193-2.12.037-3.17.529-2.373 1.145-4.729 1.72-7.092.647-2.608 1.325-5.207 1.935-7.821.155-.644.262-1.302.321-1.958.127-1.346.624-1.962 1.853-2.292.741-.193 1.542-.085 2.268.181.948.343 1.62.9 1.892 1.919.375 1.4-.198 2.78-.196 4.192.01 4.11.04 8.22.059 12.331l.01 1.67c.02 1.082-.002 2.16-.062 3.22l-.024.079zm-8.147-6.29l.927-.24c.056-.582.087-.582.032-1.845-.032-.735-.077-1.49-.222-2.211-.083-.42-.028-.83.032-1.243.1-.682.21-1.362.318-2.043.056-.34.11-.683.162-1.025.062-.378.053-.77.162-1.13.158-.514.195-1.02.142-1.536-.026-.254-.125-.518-.328-.83-.163-.252-.407-.374-.673-.426-.377-.074-.795.078-1.053.376-.324.375-.378.834-.419 1.308-.057.667-.062 1.346-.09 2.018l-.005.096a6.947 6.947 0 01-.056.556l-.003.02c-.288 2.335-.583 4.671-.875 7.007-.018.136-.025.272-.036.41zm3.12 7.31c.006 1.108.017 2.154-.008 3.196-.003.166-.105.408-.22.488-.463.336-1.193.357-1.6-.112-.43-.494-.305-1.21.236-1.677.31-.268.665-.468 1.012-.67.108-.055.251-.03.371-.04.1-.008.202.005.31-.03l-.1-.103c.002-.351.002-.702.002-1.053l-.002.002zm-.067-8.885c-.962.254-1.548 1.628-1.346 2.594.08.379.334.355.587.365.573.02 1.045-.25 1.39-.7.211-.275.332-.58.15-.901-.16-.29-.387-.502-.781-.54v-.818z" fill="#336791"/>
  <path d="M16.746 16.612a11.429 11.429 0 01-.152.602c-.259.91-.516 1.82-.794 2.724-.126.41-.324.798-.432 1.21-.159.603.155 1.281.747 1.372.68.105 1.2-.272 1.41-.979.26-.882.39-1.798.583-2.697.04-.197.114-.388.18-.626-.591-.421-1.156-.827-1.542-1.605zm7.884 3.295c-.853.068-1.742-.085-2.584.242.144.496.26.944.41 1.383.63.182.184.359.313.506.304.343.774.42 1.168.195.409-.234.642-.62.626-1.085-.011-.37-.044-.737-.067-1.09.045-.051.09-.1.134-.151zM12.28 23.38c.028.763.108 1.511-.009 2.166-.15.835-.676 1.41-1.491 1.427-.926.02-1.476-.638-1.536-1.523-.02-.322.004-.645.044-.964.131-1.018 1.01-1.885 1.988-1.989.65-.07 1.004.211 1.005.883zm13.292-4.193c.584.02 1.189-.116 1.723.094.851.335 1.264 1.418.823 2.089-.418.636-1.183.793-1.937.415-.201-.101-.405-.213-.55-.36-.32-.323-.2-.715.14-1.086.112-.125.205-.262.295-.403.123-.199.235-.404.352-.608l-.077-.142h-.77zm-1.844-1.118c-.463.177-.991.392-1.457.27-.418-.11-.654-.678-.494-1.085.1-.254.314-.452.498-.658.17-.19.448-.31.629-.228.25.112.48.353.634.58.153.23.27.532.19.842z" fill="#336791"/>
  <path d="M29.867 16.483c-.739.26-1.332.53-2.448.53 0-.61-.047-1.022.01-1.419.12-.84.665-1.075 1.404-1.083.58-.006 1.195.226 1.325.807.123.55-.283.934-.29 1.165zm-23.79-2.761c.597-.637 1.173-1.246 1.74-1.865.498-.543.929-1.133 1.43-1.671.473-.51.97-1.002 1.483-1.475.93-.855 2-.969 3.138-.356.381.205.744.44 1.12.656.188.108.385.197.578.295-.037-.475-.061-.95-.11-1.421-.051-.495.02-.978.12-1.462.122-.599.195-1.208.219-1.816.03-.73-.09-1.387-.671-1.908-.442-.398-.954-.666-1.522-.758-.556-.09-1.063.048-1.592.242-.715.261-1.44.504-2.14.798-1.12.47-2.23.953-3.239 1.643-.524.358-1.304.57-1.434 1.283-.12.651-.13 1.65.463 1.755.431.077.99-.285 1.417-.547V10.8zm11.375-5.35c.347-.423.582-1.066 1.082-1.213.474-.139 1.127.138 1.692.256.255.052.493.171.748.216.573.1 1.173.313 1.727.196.448-.093.83-.498 1.244-.771.092-.06.193-.11.29-.165.366-.203.704-.511 1.07-.82-.525-.02-.826-.128-1.085.018-.22.125-.4.345-.617.5-1.326.95-3.537.577-4.832-.801-.108-.115-.202-.243-.31-.374l.002 2.957zm8.575 11.41c1.35.048 2.459-.22 3.014-1.513.344-.801.208-1.57-.438-2.143-.35-.31-.746-.584-1.16-.815-1.242-.697-2.557-1.219-3.957-.988.4.563.573 1.23 1.05 1.64.611.525.5.935-.085 1.397-.738.584-1.152 1.304-1.126 2.253.005.16.025.32.038.48.423-.1.78-.252 1.137-.252.515 0 .985.262 1.526.342v-.401zm-13.506 7.696c1.306.237 1.579.089 2.454-.817.77-.798 1.483-1.623 1.36-2.809-.033-.313-.172-.612-.321-1.16-.316.347-.577.606-.804.889-.594.747-1.131 1.53-1.776 2.229-.563.61-1.463.806-2.189.632.359.293.763.887 1.277 1.036zm19.439-17.221c.376-.925.15-1.11-.642-1.53-.594-.314-1.17-.717-1.67-1.162-.792-.704-1.535-1.463-2.282-2.222l-.099-.114c-.553-.736-1.277-1.193-2.17-1.377-.452-.093-.92-.108-1.408-.165l.115-.202c-1.089.118-2.186.154-3.225.457-2.163.631-4.452.479-6.675.75-.325.038-.882.15-.738.816.603-.068 1.21.243 1.872.139-.09.51-.152.87-.219 1.244.493-.002.989-.096 1.483-.061.51.036 1.01.209 1.512.322.503.113 1.056.294 1.526.205.595-.11 1.14-.433 1.697-.702.725-.349 1.375-.21 1.984.206.585.399.85 1.067 1.148 1.682.309.636.632 1.197 1.307 1.553.594.314 1.012.825 1.483 1.32.3.315.625.6.989.862.885.637 1.766.74 2.766.345.184-.072.404-.004.736-.004zm-8.988 15.672c.362-.839.682-1.613 1.031-2.376.579-1.263 1.099-2.548 1.331-3.92.248-1.48.111-2.947-.499-4.368-.27-.631-.64-1.218-.993-1.811-.308-.516-.744-.832-1.351-.97-.611-.139-1.213-.358-1.802-.593-.509-.203-1.002-.464-1.5-.696-.131 1.522-.192 3.056-.41 4.574-.363 2.51-.79 5.01-1.18 7.516-.287 1.845-.552 3.693-.888 5.531-.32 1.748-.375 3.457.334 5.144.048.113.095.224.11.257.264.568.745.772 1.242.356.276-.232.516-.515.756-.788.542-.616.957-1.31 1.123-2.14.079-.392.13-.792.194-1.188.11-.675.216-1.35.328-2.051.465-.176.878-.332 1.173-.477zM5.94 13.063c.178-.696.341-1.307.494-1.92.023-.97.047-.193.045-.29-.006-.148.01-.307-.033-.442-.144-.443.006-.633.397-.856.275-.158.561-.336.783-.564.345-.35.657-.735.983-1.12.193-.226.493-.554.498-.71.018-.547.096-1.097-.031-1.652-.094-.407-.302-.842-.593-1.152-.28-.297-.731-.449-1.044-.64l-.1-.7c-.861.597-1.708 1.256-2.649 1.781-.125.07-.224.182-.765.647 1.23.304 1.949 1.37 3.016 2.068v4.837zm21.492 2.029c.15-.368.246-.639.365-.9.243-.537.506-1.064.73-1.607.282-.683.178-1.364-.227-1.993-.457-.711-.994-1.37-1.63-1.95-.973-.884-2.082-1.566-3.262-2.122-.196-.093-.398-.17-.597-.257l.027-.078c-.68-.113-1.358-.245-2.041-.332-.533-.068-.924.115-1.231.568-.436.644-.963 1.235-1.482 1.827-.32.366-.718.666-1.066 1.01-.131.13-.22.302-.322.456-.139.21-.3.417-.397.645-.7.162-.114.356-.103.535.9.162.97.323.155.48.105.284.208.57.364.832.118.199.299.368.468.534.292.284.616.524.87.839.435.54 1.044.708 1.699.844.344.071.688.142 1.031.217.827.178 1.175.632 1.286 1.45.09.662.1 1.34.143 2.01a130.56 130.56 0 01.183 5.11c.038 1.165.065 2.332.094 3.498.028 1.14-.12 2.26-.342 3.379-.195.99-.062 1.96.204 2.922.038.138.145.285.258.385.459.402.927.797 1.509.902.618.111 1.076-.155 1.507-.578.431-.424.603-1 .703-1.58.255-1.477.374-2.972.463-4.467.098-1.627.153-3.256.216-4.885.024-.625.067-1.252.49-1.819.34-.456.551-.96.63-1.505.079-.546.228-1.08.346-1.62zm-17.05 1.617c-.837.693-1.736 1.282-2.661 1.795-1.417.785-2.838 1.564-4.24 2.372-.263.152-.477.388-.708.588-.091.08-.158.179-.251.286.637.305 4.51 1.803 5.416 2.1.087-.1.27-.277.405-.492.646-1.02.608-2.103.306-3.2a36.208 36.208 0 01-.685-2.774c-.217-.942-.391-1.9-.577-2.85-.099-.51-.185-1.022-.277-1.533l-.033.008-.157.17-2.203 2.153c.11.33.19.593.282.851.394 1.112.818 2.214 1.174 3.34.369 1.166-.143 2.19-.798 2.904z" fill="#fff"/>
</svg>
