
<svg xmlns="http://www.w3.org/2000/svg" viewBox="0 0 512 512">
  <path fill="#21759B" d="M256 8C119.3 8 8 119.2 8 256c0 136.7 111.3 248 248 248s248-111.3 248-248C504 119.2 392.7 8 256 8zm-11.4 316.8c-65.6 0-120.5-54.9-120.5-120.5s54.9-120.5 120.5-120.5c35.8 0 71.6 17.9 71.6 53.6 0 17.9-17.9 35.8-35.8 35.8s-17.9-17.9-35.8-17.9c-17.9 0-53.6 35.8-53.6 53.6s26.8 53.6 53.6 53.6c17.9 0 35.8-17.9 35.8-17.9l35.8 35.8c-35.8 35.9-71.6 35.9-71.6 35.9zm209.7-120.5c0 17.9-17.9 35.8-17.9 35.8l-35.8-35.8c17.9-17.9 17.9-35.8 17.9-35.8-17.9 0-35.8 17.9-53.6 17.9-17.9 0-35.8-17.9-35.8-35.8 0-35.8 35.8-53.6 71.6-53.6 35.9 0 53.6 17.9 53.6 53.6zm-35.8 107.7L409.7 193l17.9 89.6-107.2 53.6-53.6-17.9z"/>
</svg>
