
<svg xmlns="http://www.w3.org/2000/svg" viewBox="0 0 32 32">
  <path fill="#21759B" d="M16 2C8.3 2 2 8.3 2 16s6.3 14 14 14 14-6.3 14-14S23.7 2 16 2zm0 27.3c-7.3 0-13.3-6-13.3-13.3S8.7 2.7 16 2.7s13.3 6 13.3 13.3-6 13.3-13.3 13.3z"/>
  <path fill="#21759B" d="M4 16c0 5.1 3 9.6 7.3 11.7L5.3 12.1C4.5 13.3 4 14.6 4 16zm20.7-.3c0-1.6-.6-2.7-1.1-3.5-.7-1.1-1.3-2-1.3-3 0-1.2.9-2.3 2.2-2.3h.2c-2.3-2.1-5.3-3.3-8.6-3.3-4.5 0-8.4 2.3-10.7 5.8h.8c1.3 0 3.4-.2 3.4-.2.7 0 .8 1 .1 1.1 0 0-.7.1-1.4.1l4.5 13.4 2.7-8.1-1.9-5.3c-.7 0-1.3-.1-1.3-.1-.7 0-.6-1.1.1-1.1 0 0 2.1.2 3.3.2 1.3 0 3.4-.2 3.4-.2.7 0 .8 1 .1 1.1 0 0-.7.1-1.4.1l4.5 13.3 1.2-4.1c.7-1.7 1.2-2.9 1.2-4zm-8.1 1.7l-3.7 10.9c1.1.3 2.3.5 3.5.5 1.4 0 2.8-.3 4.1-.7-.1-.1-.1-.2-.2-.3l-3.7-10.4zM26.7 11c.1.8.1 1.6.1 2.5 0 2.5-.5 5.2-1.9 8.7l-3.8-11.1c1.9-.1 3.7-.6 5.3-1.4.1.4.2.8.3 1.3z"/>
</svg>
